<?xml version="1.0" encoding="UTF-8" standalone="no"?>
<svg width="473.428mm" height="473.428mm"
 viewBox="0 0 1342 1342"
 xmlns="http://www.w3.org/2000/svg" xmlns:xlink="http://www.w3.org/1999/xlink"  version="1.2" baseProfile="tiny">
<title>Qt SVG Document</title>
<desc>Generated with Qt</desc>
<defs>
</defs>
<g fill="none" stroke="black" stroke-width="1" fill-rule="evenodd" stroke-linecap="square" stroke-linejoin="bevel" >

<g fill="#000000" fill-opacity="1" stroke="none" transform="matrix(1,0,0,1,0,0)"
font-family="Sans Serif" font-size="9" font-weight="400" font-style="normal" 
>
<rect x="0" y="0" width="1342" height="1342"/>
</g>

<g fill="none" stroke="#ffffff" stroke-opacity="1" stroke-width="1" stroke-linecap="round" stroke-linejoin="round" transform="matrix(1,0,0,1,0,0)"
font-family="Sans Serif" font-size="9" font-weight="400" font-style="normal" 
>
<polyline fill="none" vector-effect="non-scaling-stroke" points="393,1227 948,1227 " />
<polyline fill="none" vector-effect="non-scaling-stroke" points="578,857 763,857 " />
<polyline fill="none" vector-effect="non-scaling-stroke" points="393,1227 578,857 " />
<polyline fill="none" vector-effect="non-scaling-stroke" points="948,1227 763,857 " />
</g>

<g fill="none" stroke="#0000ff" stroke-opacity="1" stroke-width="1" stroke-linecap="round" stroke-linejoin="round" transform="matrix(1,0,0,1,0,0)"
font-family="Sans Serif" font-size="9" font-weight="400" font-style="normal" 
>
<polyline fill="none" vector-effect="non-scaling-stroke" points="1292,672 1292,670 1292,668 1292,666 1292,664 1292,662 1292,660 1292,659 " />
<polyline fill="none" vector-effect="non-scaling-stroke" points="1291,651 1291,649 1291,647 1291,645 1291,643 1291,641 1291,639 1291,637 1291,635 1291,634 " />
<polyline fill="none" vector-effect="non-scaling-stroke" points="1290,625 1290,623 1290,621 1290,619 1289,617 1289,615 1289,613 1289,611 1289,609 1289,608 " />
<polyline fill="none" vector-effect="non-scaling-stroke" points="1288,600 1287,598 1287,596 1287,594 1287,592 1286,590 1286,588 1286,586 1286,584 1285,583 " />
<polyline fill="none" vector-effect="non-scaling-stroke" points="1284,575 1284,573 1283,571 1283,569 1283,567 1282,565 1282,563 1282,561 1281,559 1281,558 " />
<polyline fill="none" vector-effect="non-scaling-stroke" points="1280,550 1279,548 1279,546 1278,544 1278,542 1278,540 1277,538 1277,536 1276,534 1276,533 " />
<polyline fill="none" vector-effect="non-scaling-stroke" points="1274,525 1274,523 1273,521 1273,519 1272,517 1272,515 1271,513 1271,511 1270,509 1270,508 " />
<polyline fill="none" vector-effect="non-scaling-stroke" points="1268,500 1267,498 1266,496 1266,494 1265,492 1265,490 1264,488 1264,487 1263,485 1263,484 " />
<polyline fill="none" vector-effect="non-scaling-stroke" points="1260,476 1259,474 1259,472 1258,470 1257,468 1257,466 1256,464 1255,462 1255,460 1254,459 " />
<polyline fill="none" vector-effect="non-scaling-stroke" points="1251,451 1251,450 1250,448 1249,446 1249,444 1248,442 1247,440 1246,438 1246,437 1245,436 " />
<polyline fill="none" vector-effect="non-scaling-stroke" points="1242,428 1241,426 1240,424 1239,422 1239,420 1238,419 1237,417 1236,415 1235,413 1235,412 " />
<polyline fill="none" vector-effect="non-scaling-stroke" points="1231,405 1231,403 1230,401 1229,399 1228,397 1227,396 1226,394 1225,392 1224,390 1224,389 " />
<polyline fill="none" vector-effect="non-scaling-stroke" points="1220,382 1219,380 1218,378 1217,376 1216,375 1215,373 1214,371 1213,369 1212,368 1212,367 " />
<polyline fill="none" vector-effect="non-scaling-stroke" points="1208,359 1207,358 1206,356 1205,354 1203,352 1202,351 1201,349 1200,347 1199,346 1199,345 " />
<polyline fill="none" vector-effect="non-scaling-stroke" points="1194,338 1193,336 1192,334 1191,333 1190,331 1189,329 1188,328 1187,326 1185,324 1185,323 " />
<polyline fill="none" vector-effect="non-scaling-stroke" points="1180,316 1179,315 1178,313 1177,311 1175,310 1174,308 1173,307 1172,305 1171,303 1170,303 " />
<polyline fill="none" vector-effect="non-scaling-stroke" points="1165,296 1164,294 1163,293 1161,291 1160,289 1159,288 1158,286 1156,285 1155,283 1155,282 " />
<polyline fill="none" vector-effect="non-scaling-stroke" points="1149,276 1148,274 1147,273 1145,271 1144,270 1143,268 1141,267 1140,265 1139,264 1138,263 " />
<polyline fill="none" vector-effect="non-scaling-stroke" points="1133,256 1131,255 1130,253 1128,252 1127,250 1126,249 1124,248 1123,246 1122,245 1121,244 " />
<polyline fill="none" vector-effect="non-scaling-stroke" points="1115,238 1114,236 1112,235 1111,233 1109,232 1108,231 1107,229 1105,228 1104,226 1103,226 " />
<polyline fill="none" vector-effect="non-scaling-stroke" points="1097,220 1095,218 1094,217 1092,216 1091,214 1090,213 1088,212 1087,210 1085,209 1084,208 " />
<polyline fill="none" vector-effect="non-scaling-stroke" points="1078,203 1076,201 1075,200 1073,199 1072,197 1070,196 1069,195 1067,194 1066,192 1065,192 " />
<polyline fill="none" vector-effect="non-scaling-stroke" points="1058,186 1057,185 1055,184 1054,183 1052,181 1050,180 1049,179 1047,178 1046,177 1045,176 " />
<polyline fill="none" vector-effect="non-scaling-stroke" points="1038,171 1036,170 1035,168 1033,167 1032,166 1030,165 1028,164 1027,163 1025,162 1024,161 " />
<polyline fill="none" vector-effect="non-scaling-stroke" points="1017,156 1015,155 1014,154 1012,153 1010,152 1009,151 1007,150 1005,148 1004,147 1003,147 " />
<polyline fill="none" vector-effect="non-scaling-stroke" points="996,142 994,141 992,140 991,139 989,138 987,137 985,136 984,135 982,134 981,134 " />
<polyline fill="none" vector-effect="non-scaling-stroke" points="974,129 972,128 970,128 968,127 967,126 965,125 963,124 961,123 960,122 959,121 " />
<polyline fill="none" vector-effect="non-scaling-stroke" points="951,117 949,117 948,116 946,115 944,114 942,113 940,112 939,111 937,110 936,110 " />
<polyline fill="none" vector-effect="non-scaling-stroke" points="928,106 926,106 924,105 923,104 921,103 919,102 917,102 915,101 913,100 912,100 " />
<polyline fill="none" vector-effect="non-scaling-stroke" points="905,96 903,96 901,95 899,94 897,93 895,93 893,92 892,91 890,90 889,90 " />
<polyline fill="none" vector-effect="non-scaling-stroke" points="881,87 879,86 877,86 875,85 873,85 871,84 869,83 868,83 866,82 865,82 " />
<polyline fill="none" vector-effect="non-scaling-stroke" points="857,79 855,78 853,78 851,77 849,77 847,76 845,76 843,75 841,74 840,74 " />
<polyline fill="none" vector-effect="non-scaling-stroke" points="832,72 830,71 828,71 826,70 824,70 822,69 820,69 818,68 817,68 816,68 " />
<polyline fill="none" vector-effect="non-scaling-stroke" points="807,66 805,65 803,65 801,64 799,64 797,64 796,63 794,63 792,62 791,62 " />
<polyline fill="none" vector-effect="non-scaling-stroke" points="782,61 780,60 778,60 776,60 774,59 772,59 770,59 768,58 766,58 765,58 " />
<polyline fill="none" vector-effect="non-scaling-stroke" points="757,57 755,56 753,56 751,56 749,56 747,55 745,55 743,55 741,55 740,54 " />
<polyline fill="none" vector-effect="non-scaling-stroke" points="732,54 730,53 728,53 726,53 724,53 722,53 720,52 718,52 716,52 715,52 " />
<polyline fill="none" vector-effect="non-scaling-stroke" points="706,52 704,51 702,51 700,51 698,51 696,51 694,51 692,51 690,51 689,51 " />
<polyline fill="none" vector-effect="non-scaling-stroke" points="681,51 679,51 677,51 675,51 673,51 671,51 669,51 667,51 665,51 664,51 " />
<polyline fill="none" vector-effect="non-scaling-stroke" points="655,51 653,51 651,51 649,51 647,51 645,51 643,51 641,51 639,51 638,51 " />
<polyline fill="none" vector-effect="non-scaling-stroke" points="630,52 628,52 626,52 624,52 622,52 620,53 618,53 616,53 614,53 613,53 " />
<polyline fill="none" vector-effect="non-scaling-stroke" points="604,54 602,54 600,55 598,55 596,55 594,55 592,56 590,56 588,56 587,56 " />
<polyline fill="none" vector-effect="non-scaling-stroke" points="579,57 577,58 575,58 573,58 571,59 569,59 567,59 565,60 563,60 562,60 " />
<polyline fill="none" vector-effect="non-scaling-stroke" points="554,62 552,62 550,62 548,63 546,63 544,64 542,64 540,64 538,65 537,65 " />
<polyline fill="none" vector-effect="non-scaling-stroke" points="529,67 527,67 525,68 523,68 521,69 519,69 517,70 515,70 513,71 512,71 " />
<polyline fill="none" vector-effect="non-scaling-stroke" points="504,73 502,74 500,74 498,75 496,76 494,76 493,77 491,77 489,78 488,78 " />
<polyline fill="none" vector-effect="non-scaling-stroke" points="480,81 478,81 476,82 474,83 472,83 470,84 468,85 466,85 464,86 463,86 " />
<polyline fill="none" vector-effect="non-scaling-stroke" points="455,89 454,90 452,90 450,91 448,92 446,93 444,93 442,94 441,95 440,95 " />
<polyline fill="none" vector-effect="non-scaling-stroke" points="432,98 430,99 428,100 426,101 424,102 423,102 421,103 419,104 417,105 416,105 " />
<polyline fill="none" vector-effect="non-scaling-stroke" points="408,109 407,110 405,110 403,111 401,112 399,113 398,114 396,115 394,116 393,116 " />
<polyline fill="none" vector-effect="non-scaling-stroke" points="385,120 384,121 382,122 380,123 378,124 377,125 375,126 373,127 371,128 370,128 " />
<polyline fill="none" vector-effect="non-scaling-stroke" points="363,132 361,133 360,134 358,135 356,136 354,137 353,138 351,139 349,140 348,141 " />
<polyline fill="none" vector-effect="non-scaling-stroke" points="341,145 339,146 338,147 336,148 334,150 333,151 331,152 329,153 328,154 327,155 " />
<polyline fill="none" vector-effect="non-scaling-stroke" points="320,159 318,160 316,162 315,163 313,164 312,165 310,166 308,167 307,168 306,169 " />
<polyline fill="none" vector-effect="non-scaling-stroke" points="299,174 297,175 296,177 294,178 293,179 291,180 289,181 288,183 286,184 285,185 " />
<polyline fill="none" vector-effect="non-scaling-stroke" points="279,190 277,191 276,192 274,194 273,195 271,196 270,197 268,199 267,200 266,201 " />
<polyline fill="none" vector-effect="non-scaling-stroke" points="259,206 258,208 256,209 255,210 253,212 252,213 250,214 249,216 248,217 247,218 " />
<polyline fill="none" vector-effect="non-scaling-stroke" points="241,224 239,225 238,226 236,228 235,229 233,231 232,232 231,233 229,235 228,236 " />
<polyline fill="none" vector-effect="non-scaling-stroke" points="223,242 221,243 220,245 218,246 217,248 216,249 214,250 213,252 212,253 211,254 " />
<polyline fill="none" vector-effect="non-scaling-stroke" points="205,260 204,262 203,264 201,265 200,267 199,268 197,270 196,271 195,273 194,273 " />
<polyline fill="none" vector-effect="non-scaling-stroke" points="189,280 187,282 186,283 185,285 184,286 182,288 181,289 180,291 179,293 178,293 " />
<polyline fill="none" vector-effect="non-scaling-stroke" points="173,300 172,302 171,303 169,305 168,307 167,308 166,310 165,311 164,313 163,314 " />
<polyline fill="none" vector-effect="non-scaling-stroke" points="158,321 157,323 156,324 155,326 154,328 153,329 152,331 150,333 149,334 149,335 " />
<polyline fill="none" vector-effect="non-scaling-stroke" points="144,342 143,344 142,346 141,347 140,349 139,351 138,352 137,354 136,356 135,357 " />
<polyline fill="none" vector-effect="non-scaling-stroke" points="131,364 130,366 129,368 128,369 127,371 126,373 125,375 124,376 123,378 123,379 " />
<polyline fill="none" vector-effect="non-scaling-stroke" points="119,387 118,388 117,390 116,392 115,394 114,396 114,397 113,399 112,401 111,402 " />
<polyline fill="none" vector-effect="non-scaling-stroke" points="108,410 107,411 106,413 105,415 104,417 104,419 103,420 102,422 101,424 101,425 " />
<polyline fill="none" vector-effect="non-scaling-stroke" points="97,433 97,435 96,437 95,438 94,440 94,442 93,444 92,446 91,448 91,449 " />
<polyline fill="none" vector-effect="non-scaling-stroke" points="88,457 87,459 87,460 86,462 85,464 85,466 84,468 83,470 83,472 82,473 " />
<polyline fill="none" vector-effect="non-scaling-stroke" points="80,481 79,483 79,485 78,487 77,488 77,490 76,492 76,494 75,496 75,497 " />
<polyline fill="none" vector-effect="non-scaling-stroke" points="72,505 72,507 71,509 71,511 70,513 70,515 69,517 69,519 68,521 68,522 " />
<polyline fill="none" vector-effect="non-scaling-stroke" points="66,530 66,532 65,534 65,536 64,538 64,540 63,542 63,544 63,546 62,547 " />
<polyline fill="none" vector-effect="non-scaling-stroke" points="61,555 60,557 60,559 60,561 59,563 59,565 59,567 58,569 58,571 58,572 " />
<polyline fill="none" vector-effect="non-scaling-stroke" points="56,580 56,582 56,584 56,586 55,588 55,590 55,592 55,594 54,596 54,597 " />
<polyline fill="none" vector-effect="non-scaling-stroke" points="53,605 53,607 53,609 53,611 52,613 52,615 52,617 52,619 52,621 52,622 " />
<polyline fill="none" vector-effect="non-scaling-stroke" points="51,631 51,633 51,635 51,637 51,639 50,641 50,643 50,645 50,647 50,648 " />
<polyline fill="none" vector-effect="non-scaling-stroke" points="50,656 50,658 50,660 50,662 50,664 50,666 50,668 50,670 50,672 50,673 " />
<polyline fill="none" vector-effect="non-scaling-stroke" points="50,682 50,684 50,686 50,688 50,690 50,692 50,694 50,696 50,698 50,699 " />
<polyline fill="none" vector-effect="non-scaling-stroke" points="51,707 51,709 51,711 51,713 51,715 51,717 52,719 52,721 52,723 52,724 " />
<polyline fill="none" vector-effect="non-scaling-stroke" points="53,733 53,735 53,737 53,739 54,741 54,743 54,745 54,747 55,749 55,750 " />
<polyline fill="none" vector-effect="non-scaling-stroke" points="56,758 56,760 56,762 57,764 57,766 57,768 58,770 58,772 58,774 58,775 " />
<polyline fill="none" vector-effect="non-scaling-stroke" points="60,783 60,785 61,787 61,789 61,791 62,793 62,795 63,797 63,799 63,800 " />
<polyline fill="none" vector-effect="non-scaling-stroke" points="65,808 65,810 66,812 66,814 67,816 67,818 68,820 68,822 69,824 69,825 " />
<polyline fill="none" vector-effect="non-scaling-stroke" points="71,833 72,835 72,837 73,839 73,841 74,843 74,845 75,847 76,849 76,850 " />
<polyline fill="none" vector-effect="non-scaling-stroke" points="78,858 79,860 80,862 80,864 81,865 81,867 82,869 83,871 83,873 84,874 " />
<polyline fill="none" vector-effect="non-scaling-stroke" points="86,882 87,884 88,886 89,888 89,889 90,891 91,893 91,895 92,897 92,898 " />
<polyline fill="none" vector-effect="non-scaling-stroke" points="96,906 96,908 97,910 98,911 99,913 99,915 100,917 101,919 102,921 102,922 " />
<polyline fill="none" vector-effect="non-scaling-stroke" points="106,929 107,931 107,933 108,935 109,937 110,938 111,940 112,942 113,944 113,945 " />
<polyline fill="none" vector-effect="non-scaling-stroke" points="117,952 118,954 119,956 120,958 120,959 121,961 122,963 123,965 124,966 125,967 " />
<polyline fill="none" vector-effect="non-scaling-stroke" points="129,975 130,977 131,978 132,980 133,982 134,983 135,985 136,987 137,989 137,990 " />
<polyline fill="none" vector-effect="non-scaling-stroke" points="142,997 143,999 144,1000 145,1002 146,1004 147,1005 148,1007 149,1009 150,1010 151,1011 " />
<polyline fill="none" vector-effect="non-scaling-stroke" points="156,1018 157,1020 158,1022 159,1023 160,1025 161,1027 162,1028 163,1030 165,1031 165,1032 " />
<polyline fill="none" vector-effect="non-scaling-stroke" points="170,1039 171,1041 173,1042 174,1044 175,1046 176,1047 177,1049 179,1050 180,1052 180,1053 " />
<polyline fill="none" vector-effect="non-scaling-stroke" points="186,1059 187,1061 188,1063 190,1064 191,1066 192,1067 193,1069 195,1070 196,1072 197,1073 " />
<polyline fill="none" vector-effect="non-scaling-stroke" points="202,1079 203,1081 205,1082 206,1084 207,1085 209,1087 210,1088 211,1090 213,1091 213,1092 " />
<polyline fill="none" vector-effect="non-scaling-stroke" points="219,1098 221,1099 222,1101 223,1102 225,1104 226,1105 228,1107 229,1108 230,1109 231,1110 " />
<polyline fill="none" vector-effect="non-scaling-stroke" points="237,1116 239,1118 240,1119 241,1120 243,1122 244,1123 246,1124 247,1126 249,1127 250,1128 " />
<polyline fill="none" vector-effect="non-scaling-stroke" points="256,1134 257,1135 259,1136 260,1138 262,1139 263,1140 265,1142 266,1143 268,1144 269,1145 " />
<polyline fill="none" vector-effect="non-scaling-stroke" points="275,1150 277,1152 278,1153 280,1154 281,1155 283,1157 284,1158 286,1159 288,1160 288,1161 " />
<polyline fill="none" vector-effect="non-scaling-stroke" points="295,1166 297,1167 298,1169 300,1170 302,1171 303,1172 305,1173 306,1174 308,1176 309,1176 " />
<polyline fill="none" vector-effect="non-scaling-stroke" points="316,1181 317,1182 319,1183 321,1185 322,1186 324,1187 326,1188 327,1189 329,1190 330,1191 " />
<polyline fill="none" vector-effect="non-scaling-stroke" points="337,1195 339,1196 340,1197 342,1199 344,1200 346,1201 347,1202 349,1203 351,1204 352,1204 " />
<polyline fill="none" vector-effect="non-scaling-stroke" points="359,1209 361,1210 362,1211 364,1212 366,1213 368,1214 369,1215 371,1215 373,1216 374,1217 " />
<polyline fill="none" vector-effect="non-scaling-stroke" points="381,1221 383,1222 385,1223 387,1224 388,1225 390,1226 392,1226 394,1227 395,1228 396,1229 " />
<polyline fill="none" vector-effect="non-scaling-stroke" points="404,1232 406,1233 408,1234 409,1235 411,1236 413,1237 415,1237 417,1238 419,1239 420,1239 " />
<polyline fill="none" vector-effect="non-scaling-stroke" points="427,1243 429,1244 431,1244 433,1245 435,1246 437,1247 438,1247 440,1248 442,1249 443,1249 " />
<polyline fill="none" vector-effect="non-scaling-stroke" points="451,1252 453,1253 455,1254 457,1254 459,1255 460,1256 462,1257 464,1257 466,1258 467,1258 " />
<polyline fill="none" vector-effect="non-scaling-stroke" points="475,1261 477,1262 479,1262 481,1263 483,1263 485,1264 487,1265 488,1265 490,1266 491,1266 " />
<polyline fill="none" vector-effect="non-scaling-stroke" points="499,1268 501,1269 503,1270 505,1270 507,1271 509,1271 511,1272 513,1272 515,1273 516,1273 " />
<polyline fill="none" vector-effect="non-scaling-stroke" points="524,1275 526,1275 528,1276 530,1276 532,1277 534,1277 536,1278 538,1278 540,1279 541,1279 " />
<polyline fill="none" vector-effect="non-scaling-stroke" points="549,1281 551,1281 553,1281 555,1282 557,1282 559,1282 561,1283 563,1283 565,1283 566,1284 " />
<polyline fill="none" vector-effect="non-scaling-stroke" points="574,1285 576,1285 578,1286 580,1286 582,1286 584,1286 586,1287 588,1287 590,1287 591,1287 " />
<polyline fill="none" vector-effect="non-scaling-stroke" points="600,1288 602,1289 604,1289 605,1289 607,1289 609,1290 611,1290 613,1290 615,1290 616,1290 " />
<polyline fill="none" vector-effect="non-scaling-stroke" points="625,1291 627,1291 629,1291 631,1291 633,1291 635,1292 637,1292 639,1292 641,1292 642,1292 " />
<polyline fill="none" vector-effect="non-scaling-stroke" points="650,1292 652,1292 654,1292 656,1292 658,1292 660,1292 662,1293 664,1293 666,1293 667,1293 " />
<polyline fill="none" vector-effect="non-scaling-stroke" points="676,1293 678,1293 680,1292 682,1292 684,1292 686,1292 688,1292 690,1292 692,1292 693,1292 " />
<polyline fill="none" vector-effect="non-scaling-stroke" points="702,1292 703,1292 705,1292 707,1291 709,1291 711,1291 713,1291 715,1291 717,1291 718,1291 " />
<polyline fill="none" vector-effect="non-scaling-stroke" points="727,1290 729,1290 731,1290 733,1289 735,1289 737,1289 739,1289 741,1289 743,1288 744,1288 " />
<polyline fill="none" vector-effect="non-scaling-stroke" points="752,1287 754,1287 756,1287 758,1286 760,1286 762,1286 764,1285 766,1285 768,1285 769,1285 " />
<polyline fill="none" vector-effect="non-scaling-stroke" points="778,1283 780,1283 782,1283 783,1282 785,1282 787,1281 789,1281 791,1281 793,1280 794,1280 " />
<polyline fill="none" vector-effect="non-scaling-stroke" points="803,1278 805,1278 807,1278 808,1277 810,1277 812,1276 814,1276 816,1275 818,1275 819,1275 " />
<polyline fill="none" vector-effect="non-scaling-stroke" points="827,1272 829,1272 831,1271 833,1271 835,1270 837,1270 839,1269 841,1269 843,1268 844,1268 " />
<polyline fill="none" vector-effect="non-scaling-stroke" points="852,1265 854,1265 856,1264 858,1264 860,1263 862,1263 863,1262 865,1261 867,1261 868,1260 " />
<polyline fill="none" vector-effect="non-scaling-stroke" points="876,1258 878,1257 880,1256 882,1256 884,1255 886,1254 888,1253 889,1253 891,1252 892,1252 " />
<polyline fill="none" vector-effect="non-scaling-stroke" points="900,1249 902,1248 904,1247 906,1246 908,1246 909,1245 911,1244 913,1243 915,1242 916,1242 " />
<polyline fill="none" vector-effect="non-scaling-stroke" points="924,1239 926,1238 927,1237 929,1236 931,1235 933,1235 935,1234 936,1233 938,1232 939,1232 " />
<polyline fill="none" vector-effect="non-scaling-stroke" points="947,1228 949,1227 950,1226 952,1225 954,1224 956,1223 958,1222 959,1221 961,1220 962,1220 " />
<polyline fill="none" vector-effect="non-scaling-stroke" points="969,1216 971,1215 973,1214 975,1213 976,1212 978,1211 980,1210 982,1209 983,1208 984,1208 " />
<polyline fill="none" vector-effect="non-scaling-stroke" points="992,1203 993,1202 995,1201 997,1200 998,1199 1000,1198 1002,1197 1004,1196 1005,1195 1006,1194 " />
<polyline fill="none" vector-effect="non-scaling-stroke" points="1013,1190 1015,1188 1017,1187 1018,1186 1020,1185 1021,1184 1023,1183 1025,1182 1026,1181 1027,1180 " />
<polyline fill="none" vector-effect="non-scaling-stroke" points="1034,1175 1036,1174 1037,1173 1039,1172 1041,1170 1042,1169 1044,1168 1045,1167 1047,1166 1048,1165 " />
<polyline fill="none" vector-effect="non-scaling-stroke" points="1055,1160 1056,1158 1058,1157 1059,1156 1061,1155 1062,1153 1064,1152 1065,1151 1067,1150 1068,1149 " />
<polyline fill="none" vector-effect="non-scaling-stroke" points="1074,1144 1076,1142 1077,1141 1079,1140 1080,1138 1082,1137 1083,1136 1085,1134 1086,1133 1087,1132 " />
<polyline fill="none" vector-effect="non-scaling-stroke" points="1093,1127 1095,1125 1096,1124 1098,1122 1099,1121 1101,1120 1102,1118 1104,1117 1105,1115 1106,1115 " />
<polyline fill="none" vector-effect="non-scaling-stroke" points="1112,1109 1113,1107 1115,1106 1116,1104 1117,1103 1119,1102 1120,1100 1121,1099 1123,1097 1124,1097 " />
<polyline fill="none" vector-effect="non-scaling-stroke" points="1129,1090 1131,1089 1132,1087 1133,1086 1135,1084 1136,1083 1137,1081 1139,1080 1140,1078 1141,1078 " />
<polyline fill="none" vector-effect="non-scaling-stroke" points="1146,1071 1147,1070 1149,1068 1150,1066 1151,1065 1153,1063 1154,1062 1155,1060 1156,1059 1157,1058 " />
<polyline fill="none" vector-effect="non-scaling-stroke" points="1162,1051 1163,1050 1165,1048 1166,1046 1167,1045 1168,1043 1169,1042 1171,1040 1172,1038 " />
<polyline fill="none" vector-effect="non-scaling-stroke" points="1177,1031 1179,1029 1180,1027 1181,1026 1182,1024 1183,1022 1184,1021 1185,1019 1186,1017 1187,1017 " />
<polyline fill="none" vector-effect="non-scaling-stroke" points="1192,1010 1193,1008 1194,1006 1195,1004 1196,1003 1197,1001 1198,999 1199,998 1200,996 1201,995 " />
<polyline fill="none" vector-effect="non-scaling-stroke" points="1205,988 1206,986 1207,984 1208,983 1209,981 1210,979 1211,977 1212,976 1213,974 1214,973 " />
<polyline fill="none" vector-effect="non-scaling-stroke" points="1218,966 1219,964 1220,962 1221,960 1221,959 1222,957 1223,955 1224,953 1225,951 1226,950 " />
<polyline fill="none" vector-effect="non-scaling-stroke" points="1229,943 1230,941 1231,939 1232,937 1233,936 1234,934 1234,932 1235,930 1236,928 1237,927 " />
<polyline fill="none" vector-effect="non-scaling-stroke" points="1240,920 1241,918 1242,916 1242,914 1243,912 1244,910 1245,909 1245,907 1246,905 1247,904 " />
<polyline fill="none" vector-effect="non-scaling-stroke" points="1250,896 1250,894 1251,892 1252,890 1253,889 1253,887 1254,885 1255,883 1255,881 1256,880 " />
<polyline fill="none" vector-effect="non-scaling-stroke" points="1258,872 1259,870 1260,868 1260,866 1261,864 1262,863 1262,861 1263,859 1263,857 1264,856 " />
<polyline fill="none" vector-effect="non-scaling-stroke" points="1266,848 1267,846 1267,844 1268,842 1268,840 1269,838 1269,836 1270,834 1271,832 1271,831 " />
<polyline fill="none" vector-effect="non-scaling-stroke" points="1273,823 1273,821 1274,819 1274,817 1275,815 1275,813 1276,811 1276,809 1277,808 1277,807 " />
<polyline fill="none" vector-effect="non-scaling-stroke" points="1279,798 1279,796 1279,794 1280,792 1280,790 1281,788 1281,786 1281,784 1282,783 1282,782 " />
<polyline fill="none" vector-effect="non-scaling-stroke" points="1283,773 1284,771 1284,769 1284,767 1285,765 1285,763 1285,761 1285,759 1286,757 1286,756 " />
<polyline fill="none" vector-effect="non-scaling-stroke" points="1287,748 1287,746 1287,744 1288,742 1288,740 1288,738 1288,736 1289,734 1289,732 1289,731 " />
<polyline fill="none" vector-effect="non-scaling-stroke" points="1290,722 1290,720 1290,718 1290,716 1290,714 1290,712 1290,710 1291,708 1291,706 1291,705 " />
<polyline fill="none" vector-effect="non-scaling-stroke" points="1291,697 1291,695 1291,693 1291,691 1291,689 1292,687 1292,685 1292,683 1292,681 1292,680 " />
</g>

<g fill="none" stroke="#0000ff" stroke-opacity="1" stroke-width="1" stroke-linecap="round" stroke-linejoin="round" transform="matrix(1,0,0,1,0,0)"
font-family="Sans Serif" font-size="9" font-weight="400" font-style="normal" 
>
<polyline fill="none" vector-effect="non-scaling-stroke" points="878,672 878,670 878,668 878,666 878,664 877,662 877,660 877,659 " />
<polyline fill="none" vector-effect="non-scaling-stroke" points="877,651 876,649 876,647 876,645 876,643 875,641 875,639 875,637 874,635 874,634 " />
<polyline fill="none" vector-effect="non-scaling-stroke" points="873,625 872,624 872,622 871,620 871,618 870,616 870,614 869,612 868,610 868,609 " />
<polyline fill="none" vector-effect="non-scaling-stroke" points="865,601 865,599 864,597 863,595 862,594 862,592 861,590 860,588 859,586 859,585 " />
<polyline fill="none" vector-effect="non-scaling-stroke" points="855,578 854,576 853,574 852,572 851,571 850,569 849,567 848,565 847,564 847,563 " />
<polyline fill="none" vector-effect="non-scaling-stroke" points="842,556 841,554 840,552 839,551 838,549 836,547 835,546 834,544 833,543 832,542 " />
<polyline fill="none" vector-effect="non-scaling-stroke" points="827,535 825,534 824,532 823,531 821,529 820,528 818,527 817,525 816,524 815,523 " />
<polyline fill="none" vector-effect="non-scaling-stroke" points="809,517 807,516 806,515 804,513 803,512 801,511 800,510 798,508 796,507 796,506 " />
<polyline fill="none" vector-effect="non-scaling-stroke" points="789,501 787,500 785,499 784,498 782,497 780,496 779,495 777,494 775,493 774,492 " />
<polyline fill="none" vector-effect="non-scaling-stroke" points="767,488 765,487 763,486 761,486 760,485 758,484 756,483 754,482 752,481 751,481 " />
<polyline fill="none" vector-effect="non-scaling-stroke" points="744,478 742,477 740,476 738,476 736,475 734,475 732,474 730,473 728,473 727,472 " />
<polyline fill="none" vector-effect="non-scaling-stroke" points="719,470 717,470 715,469 713,469 711,469 709,468 707,468 705,467 703,467 702,467 " />
<polyline fill="none" vector-effect="non-scaling-stroke" points="694,466 692,466 690,465 688,465 686,465 684,465 682,465 680,465 678,465 677,465 " />
<polyline fill="none" vector-effect="non-scaling-stroke" points="669,465 667,465 665,465 663,465 661,465 659,465 657,465 655,465 653,465 652,465 " />
<polyline fill="none" vector-effect="non-scaling-stroke" points="643,466 641,467 639,467 637,467 635,468 633,468 631,468 629,469 627,469 626,469 " />
<polyline fill="none" vector-effect="non-scaling-stroke" points="618,471 616,472 614,472 612,473 610,474 608,474 607,475 605,475 603,476 602,476 " />
<polyline fill="none" vector-effect="non-scaling-stroke" points="594,479 592,480 590,481 588,482 586,482 585,483 583,484 581,485 579,486 578,486 " />
<polyline fill="none" vector-effect="non-scaling-stroke" points="571,490 569,491 567,492 566,493 564,494 562,495 560,496 559,497 557,499 556,499 " />
<polyline fill="none" vector-effect="non-scaling-stroke" points="549,504 548,505 546,506 544,508 543,509 541,510 540,511 538,513 537,514 536,515 " />
<polyline fill="none" vector-effect="non-scaling-stroke" points="530,520 528,522 527,523 525,524 524,526 522,527 521,529 520,530 518,532 " />
<polyline fill="none" vector-effect="non-scaling-stroke" points="512,539 511,540 509,542 508,543 507,545 506,547 505,548 503,550 502,551 502,552 " />
<polyline fill="none" vector-effect="non-scaling-stroke" points="497,559 496,561 495,563 494,564 493,566 492,568 491,570 490,571 489,573 488,574 " />
<polyline fill="none" vector-effect="non-scaling-stroke" points="484,582 483,583 483,585 482,587 481,589 480,591 479,592 479,594 478,596 478,597 " />
<polyline fill="none" vector-effect="non-scaling-stroke" points="475,605 474,607 473,609 473,611 472,613 472,615 471,617 471,619 470,620 470,621 " />
<polyline fill="none" vector-effect="non-scaling-stroke" points="468,630 468,632 467,634 467,636 467,638 466,640 466,642 466,644 465,646 465,647 " />
<polyline fill="none" vector-effect="non-scaling-stroke" points="464,655 464,657 464,659 464,661 464,663 464,665 464,667 464,669 464,671 464,672 " />
<polyline fill="none" vector-effect="non-scaling-stroke" points="464,681 464,683 464,685 464,687 464,689 465,691 465,693 465,694 465,696 465,697 " />
<polyline fill="none" vector-effect="non-scaling-stroke" points="467,706 467,708 467,710 468,712 468,714 468,716 469,718 469,720 470,722 470,723 " />
<polyline fill="none" vector-effect="non-scaling-stroke" points="472,731 473,733 474,735 474,736 475,738 475,740 476,742 477,744 478,746 478,747 " />
<polyline fill="none" vector-effect="non-scaling-stroke" points="481,755 482,757 483,758 484,760 485,762 485,764 486,766 487,767 488,769 489,770 " />
<polyline fill="none" vector-effect="non-scaling-stroke" points="493,777 494,779 495,781 496,783 497,784 498,786 499,788 500,789 502,791 502,792 " />
<polyline fill="none" vector-effect="non-scaling-stroke" points="507,799 508,800 510,802 511,803 512,805 514,806 515,808 516,809 518,811 518,812 " />
<polyline fill="none" vector-effect="non-scaling-stroke" points="524,818 525,819 527,820 528,822 530,823 531,825 533,826 534,827 536,829 537,829 " />
<polyline fill="none" vector-effect="non-scaling-stroke" points="543,835 545,836 546,837 548,838 550,839 551,841 553,842 554,843 556,844 557,845 " />
<polyline fill="none" vector-effect="non-scaling-stroke" points="564,849 566,850 568,851 569,852 571,853 573,854 575,855 576,856 578,857 579,857 " />
<polyline fill="none" vector-effect="non-scaling-stroke" points="587,861 589,862 591,862 592,863 594,864 596,865 598,865 600,866 602,867 603,867 " />
<polyline fill="none" vector-effect="non-scaling-stroke" points="611,870 613,870 615,871 617,871 618,872 620,872 622,873 624,873 626,874 627,874 " />
<polyline fill="none" vector-effect="non-scaling-stroke" points="636,876 638,876 640,876 642,876 644,877 645,877 647,877 649,877 651,878 652,878 " />
<polyline fill="none" vector-effect="non-scaling-stroke" points="661,878 663,878 665,878 667,879 669,879 671,879 673,879 675,879 677,878 678,878 " />
<polyline fill="none" vector-effect="non-scaling-stroke" points="686,878 688,878 690,878 692,877 694,877 696,877 698,877 700,876 702,876 703,876 " />
<polyline fill="none" vector-effect="non-scaling-stroke" points="712,874 714,874 716,874 718,873 720,873 722,872 723,872 725,871 727,871 728,870 " />
<polyline fill="none" vector-effect="non-scaling-stroke" points="736,868 738,867 740,867 742,866 744,865 746,864 748,864 750,863 751,862 752,862 " />
<polyline fill="none" vector-effect="non-scaling-stroke" points="760,858 762,857 764,857 765,856 767,855 769,854 771,853 772,852 774,851 775,850 " />
<polyline fill="none" vector-effect="non-scaling-stroke" points="782,846 784,845 786,844 787,843 789,841 791,840 792,839 794,838 795,837 796,836 " />
<polyline fill="none" vector-effect="non-scaling-stroke" points="803,831 804,830 806,828 808,827 809,826 810,824 812,823 813,822 815,820 816,819 " />
<polyline fill="none" vector-effect="non-scaling-stroke" points="822,813 823,812 824,810 826,809 827,807 828,806 830,804 831,803 832,801 833,800 " />
<polyline fill="none" vector-effect="non-scaling-stroke" points="838,794 839,792 840,790 841,789 842,787 844,785 845,784 846,782 847,780 " />
<polyline fill="none" vector-effect="non-scaling-stroke" points="852,772 853,770 854,769 854,767 855,765 856,763 857,762 858,760 859,758 859,757 " />
<polyline fill="none" vector-effect="non-scaling-stroke" points="863,749 863,747 864,745 865,744 865,742 866,740 867,738 867,736 868,734 868,733 " />
<polyline fill="none" vector-effect="non-scaling-stroke" points="871,725 871,723 872,721 872,719 873,717 873,715 873,713 874,711 874,709 874,708 " />
<polyline fill="none" vector-effect="non-scaling-stroke" points="876,700 876,698 876,696 876,694 877,692 877,690 877,688 877,686 877,684 877,683 " />
<polyline fill="none" vector-effect="non-scaling-stroke" points="878,675 878,673 878,672 " />
</g>

<g fill="none" stroke="#0000ff" stroke-opacity="1" stroke-width="1" stroke-linecap="round" stroke-linejoin="round" transform="matrix(1,0,0,1,0,0)"
font-family="Sans Serif" font-size="9" font-weight="400" font-style="normal" 
>
<polyline fill="none" vector-effect="non-scaling-stroke" points="671,672 688,672 " />
<polyline fill="none" vector-effect="non-scaling-stroke" points="696,672 713,672 " />
<polyline fill="none" vector-effect="non-scaling-stroke" points="722,672 739,672 " />
<polyline fill="none" vector-effect="non-scaling-stroke" points="747,672 764,672 " />
<polyline fill="none" vector-effect="non-scaling-stroke" points="773,672 790,672 " />
<polyline fill="none" vector-effect="non-scaling-stroke" points="798,672 815,672 " />
<polyline fill="none" vector-effect="non-scaling-stroke" points="824,672 841,672 " />
<polyline fill="none" vector-effect="non-scaling-stroke" points="849,672 866,672 " />
<polyline fill="none" vector-effect="non-scaling-stroke" points="875,672 892,672 " />
<polyline fill="none" vector-effect="non-scaling-stroke" points="901,672 918,672 " />
<polyline fill="none" vector-effect="non-scaling-stroke" points="926,672 943,672 " />
<polyline fill="none" vector-effect="non-scaling-stroke" points="952,672 969,672 " />
<polyline fill="none" vector-effect="non-scaling-stroke" points="977,672 994,672 " />
<polyline fill="none" vector-effect="non-scaling-stroke" points="1003,672 1020,672 " />
<polyline fill="none" vector-effect="non-scaling-stroke" points="1028,672 1045,672 " />
<polyline fill="none" vector-effect="non-scaling-stroke" points="1054,672 1071,672 " />
<polyline fill="none" vector-effect="non-scaling-stroke" points="1079,672 1096,672 " />
<polyline fill="none" vector-effect="non-scaling-stroke" points="1105,672 1122,672 " />
<polyline fill="none" vector-effect="non-scaling-stroke" points="1130,672 1147,672 " />
<polyline fill="none" vector-effect="non-scaling-stroke" points="1156,672 1173,672 " />
<polyline fill="none" vector-effect="non-scaling-stroke" points="1181,672 1198,672 " />
<polyline fill="none" vector-effect="non-scaling-stroke" points="1207,672 1224,672 " />
<polyline fill="none" vector-effect="non-scaling-stroke" points="1232,672 1250,672 " />
<polyline fill="none" vector-effect="non-scaling-stroke" points="1258,672 1275,672 " />
<polyline fill="none" vector-effect="non-scaling-stroke" points="1284,672 1292,672 " />
</g>

<g fill="none" stroke="#0000ff" stroke-opacity="1" stroke-width="1" stroke-linecap="round" stroke-linejoin="round" transform="matrix(1,0,0,1,0,0)"
font-family="Sans Serif" font-size="9" font-weight="400" font-style="normal" 
>
<polyline fill="none" vector-effect="non-scaling-stroke" points="671,672 655,666 " />
<polyline fill="none" vector-effect="non-scaling-stroke" points="647,663 630,658 " />
<polyline fill="none" vector-effect="non-scaling-stroke" points="622,655 606,649 " />
<polyline fill="none" vector-effect="non-scaling-stroke" points="598,647 582,641 " />
<polyline fill="none" vector-effect="non-scaling-stroke" points="574,638 558,633 " />
<polyline fill="none" vector-effect="non-scaling-stroke" points="550,630 534,624 " />
<polyline fill="none" vector-effect="non-scaling-stroke" points="526,622 510,616 " />
<polyline fill="none" vector-effect="non-scaling-stroke" points="502,613 486,608 " />
<polyline fill="none" vector-effect="non-scaling-stroke" points="478,605 461,600 " />
<polyline fill="none" vector-effect="non-scaling-stroke" points="453,597 437,591 " />
<polyline fill="none" vector-effect="non-scaling-stroke" points="429,588 413,583 " />
<polyline fill="none" vector-effect="non-scaling-stroke" points="405,580 389,575 " />
<polyline fill="none" vector-effect="non-scaling-stroke" points="381,572 365,566 " />
<polyline fill="none" vector-effect="non-scaling-stroke" points="357,563 341,558 " />
<polyline fill="none" vector-effect="non-scaling-stroke" points="333,555 317,550 " />
<polyline fill="none" vector-effect="non-scaling-stroke" points="309,547 292,541 " />
<polyline fill="none" vector-effect="non-scaling-stroke" points="284,539 268,533 " />
<polyline fill="none" vector-effect="non-scaling-stroke" points="260,530 244,525 " />
<polyline fill="none" vector-effect="non-scaling-stroke" points="236,522 220,516 " />
<polyline fill="none" vector-effect="non-scaling-stroke" points="212,514 196,508 " />
<polyline fill="none" vector-effect="non-scaling-stroke" points="188,505 172,500 " />
<polyline fill="none" vector-effect="non-scaling-stroke" points="164,497 148,491 " />
<polyline fill="none" vector-effect="non-scaling-stroke" points="140,489 123,483 " />
<polyline fill="none" vector-effect="non-scaling-stroke" points="115,480 99,475 " />
<polyline fill="none" vector-effect="non-scaling-stroke" points="91,472 84,469 " />
</g>
</g>
</svg>
